<svg width="152" height="19" viewBox="0 0 152 19" fill="none" xmlns="http://www.w3.org/2000/svg">
<g clip-path="url(#clip0_10_6)">
<path d="M8.90494 4.43316V18.1153H4.34415V4.43316H0.5979V0.57056H12.6512V4.43316H8.90494Z" fill="white"/>
<path d="M37.8513 4.43316H32.4296V7.36514H37.5488V11.2277H32.4296V14.2526H37.8513V18.1153H27.8689V0.57056H37.8513V4.43316Z" fill="white"/>
<path d="M68.8219 14.5784H69.8227C70.9703 14.5784 71.7924 14.4309 72.289 14.1362C72.7854 13.8416 73.0336 13.3683 73.0336 12.7169C73.0336 12.0652 72.7854 11.5924 72.289 11.2975C71.7924 11.003 70.9703 10.8553 69.8227 10.8553H68.8219V14.5784ZM68.8219 7.45814H69.6596C71.0867 7.45814 71.8006 6.89186 71.8006 5.7595C71.8006 4.62727 71.0867 4.06067 69.6596 4.06067H68.8219V7.45814ZM64.2615 0.57056H71.0557C72.669 0.57056 73.8947 0.958483 74.7321 1.73389C75.57 2.50985 75.989 3.62664 75.989 5.08469C75.989 5.96896 75.8298 6.70181 75.5118 7.28352C75.1936 7.86514 74.709 8.35795 74.0575 8.76122C74.709 8.88529 75.2633 9.07512 75.7213 9.33123C76.1787 9.58704 76.5507 9.90127 76.8379 10.2736C77.1249 10.6458 77.3302 11.0646 77.4546 11.5301C77.5787 11.9955 77.6407 12.4921 77.6407 13.0192C77.6407 13.8416 77.4974 14.5706 77.2105 15.2066C76.9233 15.8429 76.52 16.3781 76.0005 16.8121C75.4805 17.2465 74.8485 17.5723 74.1039 17.7895C73.3593 18.007 72.5219 18.1153 71.5911 18.1153H64.2615V0.57056Z" fill="white"/>
<path d="M84.1791 8.41212H85.0399C85.9396 8.41212 86.6298 8.22602 87.1109 7.85367C87.5916 7.48139 87.8324 6.946 87.8324 6.24802C87.8324 5.54996 87.5916 5.01468 87.1109 4.64262C86.6298 4.27013 85.9396 4.08406 85.0399 4.08406H84.1791V8.41212ZM94.208 18.1153H88.5303L84.1791 11.3672V18.1153H79.6184V0.57056H86.7155C87.6929 0.57056 88.5457 0.714072 89.275 1.00085C90.0042 1.28806 90.6049 1.67975 91.0785 2.1761C91.5513 2.67266 91.908 3.24644 92.1488 3.89799C92.389 4.54952 92.5095 5.24739 92.5095 5.99202C92.5095 7.32654 92.1875 8.40836 91.5439 9.23827C90.8998 10.068 89.9498 10.6306 88.6934 10.9253L94.208 18.1153Z" fill="white"/>
<path d="M99.8554 0.57056V18.1153H95.2947V0.57056H99.8554" fill="white"/>
<path d="M107.369 14.2526H108.416C109.207 14.2526 109.912 14.1285 110.533 13.8802C111.153 13.6323 111.677 13.2909 112.104 12.8565C112.53 12.4224 112.856 11.9063 113.081 11.3089C113.306 10.7121 113.419 10.0565 113.419 9.34271C113.419 8.64484 113.302 7.99331 113.069 7.38821C112.837 6.7833 112.507 6.2637 112.081 5.82921C111.654 5.39519 111.13 5.0538 110.51 4.80532C109.889 4.55756 109.191 4.43316 108.416 4.43316H107.369V14.2526ZM102.808 0.57056H109.556C110.75 0.57056 111.871 0.811019 112.918 1.29183C113.965 1.77283 114.881 2.4129 115.664 3.2116C116.447 4.01059 117.064 4.94151 117.514 6.00383C117.963 7.06634 118.189 8.17938 118.189 9.34271C118.189 10.4909 117.967 11.5963 117.525 12.6587C117.083 13.7215 116.47 14.6562 115.687 15.4625C114.904 16.2692 113.989 16.9132 112.941 17.3939C111.895 17.8747 110.766 18.1153 109.556 18.1153H102.808V0.57056" fill="white"/>
<path d="M128.774 8.29576H137.825C137.825 9.22649 137.786 10.0722 137.709 10.8319C137.631 11.5924 137.476 12.2981 137.243 12.9495C136.918 13.8649 136.476 14.6755 135.917 15.3812C135.359 16.0872 134.703 16.6766 133.951 17.1494C133.198 17.6229 132.372 17.9836 131.473 18.2316C130.573 18.4797 129.627 18.6039 128.634 18.6039C127.269 18.6039 126.024 18.3788 124.899 17.9293C123.775 17.4793 122.809 16.8471 122.002 16.0328C121.195 15.2182 120.567 14.2409 120.117 13.1008C119.667 11.9605 119.443 10.7005 119.443 9.31948C119.443 7.95473 119.664 6.70183 120.106 5.56164C120.548 4.42137 121.176 3.44809 121.991 2.64124C122.805 1.83505 123.786 1.20678 124.934 0.75667C126.082 0.30697 127.362 0.0817484 128.774 0.0817484C130.604 0.0817484 132.209 0.477497 133.59 1.26845C134.971 2.05975 136.064 3.28528 136.871 4.94496L132.543 6.73656C132.139 5.7752 131.616 5.08471 130.972 4.6659C130.329 4.24708 129.596 4.03743 128.774 4.03743C128.091 4.03743 127.47 4.16559 126.912 4.42137C126.354 4.67737 125.877 5.04215 125.481 5.515C125.085 5.9885 124.775 6.55865 124.55 7.22542C124.325 7.89251 124.213 8.63703 124.213 9.45912C124.213 10.2038 124.31 10.8941 124.504 11.5301C124.697 12.1664 124.988 12.7169 125.376 13.1824C125.764 13.6475 126.245 14.0081 126.819 14.2642C127.393 14.5202 128.06 14.6482 128.82 14.6482C129.27 14.6482 129.704 14.598 130.123 14.4969C130.542 14.3961 130.918 14.2333 131.252 14.0081C131.585 13.7834 131.86 13.4929 132.078 13.1357C132.295 12.779 132.442 12.3444 132.52 11.8327H128.774V8.29576" fill="white"/>
<path d="M149.859 4.43316H144.438V7.36514H149.557V11.2277H144.438V14.2526H149.859V18.1153H139.877V0.57056H149.859V4.43316" fill="white"/>
<path d="M57.6574 0.549116H44.4786C43.2656 0.549116 42.2821 1.53259 42.2821 2.74559V15.9244C42.2821 17.1374 43.2656 18.1209 44.4786 18.1209V9.06044H57.6574V18.1209C58.8704 18.1209 59.8539 17.1374 59.8539 15.9244V2.74559C59.8539 1.53259 58.8704 0.549116 57.6574 0.549116ZM48.3224 18.1209H53.8136V12.0806H48.3224V18.1209Z" fill="#E22B23"/>
<path d="M24.9849 9.06044V18.1209H21.1411V12.0806H15.6499V18.1209H11.806V9.06044H24.9849Z" fill="white"/>
<path d="M57.6575 9.06044V18.1209H53.8137V12.0806H48.3225V18.1209H44.4786V9.06044H57.6575Z" fill="white"/>
</g>
<defs>
<clipPath id="clip0_10_6">
<rect width="151.008" height="18.67" fill="white"/>
</clipPath>
</defs>
</svg>
